<svg width="281" height="173" viewBox="0 0 281 173" fill="none" xmlns="http://www.w3.org/2000/svg">
<g filter="url(#filter0_d_42_2)">
<path d="M126 0L146.88 59.77H214.448L159.784 96.7099L180.664 156.48L126 119.54L71.336 156.48L92.2158 96.7099L37.5517 59.77H105.12L126 0Z" fill="#DE7889"/>
<path d="M126 7.58055L144.52 60.5945L145.105 62.27H146.88H206.284L158.384 94.6385L156.789 95.7166L157.424 97.5344L175.818 150.188L127.4 117.469L126 116.523L124.6 117.469L76.1822 150.188L94.5759 97.5344L95.2109 95.7166L93.6155 94.6385L45.7163 62.27H105.12H106.895L107.48 60.5945L126 7.58055Z" stroke="#3D8423" stroke-width="5"/>
</g>
<path d="M16.52 77.8C16.8933 76.6267 17.4933 76.04 18.32 76.04C19.0667 76.0667 19.7733 76.6 20.44 77.64C21.1067 78.6533 21.44 79.44 21.44 80C21.3867 81.0933 21.0533 82.84 20.44 85.24C19.8267 87.6133 18.96 90.7067 17.84 94.52C19.6 93.16 21.3333 91.3867 23.04 89.2C23.6267 88.4533 24.12 87.8533 24.52 87.4C24.9467 86.92 25.2933 86.68 25.56 86.68C25.9333 86.68 26.12 87.1067 26.12 87.96C26.12 89.64 25.1733 91.6 23.28 93.84C21.4133 96.08 19.12 97.8267 16.4 99.08C16.08 100.147 15.7333 101.16 15.36 102.12C14.9867 103.08 14.5067 103.92 13.92 104.64C12.64 106.187 10.6933 106.96 8.08 106.96C6.32 106.96 4.81333 106.453 3.56 105.44C2.33333 104.427 1.72 103.16 1.72 101.64C1.72 100.813 1.98667 100.16 2.52 99.68C3.08 99.2 3.84 98.8133 4.8 98.52C5.76 98.2267 6.88 97.9733 8.16 97.76C9.46667 97.5467 10.8533 97.28 12.32 96.96C12.4533 96.5067 12.56 96.0667 12.64 95.64C12.7467 95.1867 12.8533 94.7333 12.96 94.28C11.4933 95.64 9.69333 96.32 7.56 96.32C5.45333 96.32 3.82667 95.7333 2.68 94.56C1.53333 93.3867 0.973333 91.96 1 90.28C1 85.7467 2.50667 82.1733 5.52 79.56C7.6 77.7733 9.76 76.88 12 76.88C12.7733 76.88 13.6 76.9733 14.48 77.16C15.3867 77.3467 16.0667 77.56 16.52 77.8ZM6.88 88.96C6.88 91.0133 7.64 92.04 9.16 92.04C10.0133 92.04 10.88 91.72 11.76 91.08C12.64 90.44 13.3467 89.4 13.88 87.96C14.28 86.0933 14.6933 84.3733 15.12 82.8C15.5733 81.2267 15.88 80.1333 16.04 79.52C13.8 79.8133 11.7067 80.8133 9.76 82.52C7.84 84.2267 6.88 86.3733 6.88 88.96ZM11.08 100.64C10.12 100.827 9.28 100.973 8.56 101.08C7.84 101.187 7.24 101.28 6.76 101.36C6.30667 101.44 5.96 101.533 5.72 101.64C5.50667 101.747 5.4 101.92 5.4 102.16C5.4 102.64 5.69333 103.053 6.28 103.4C6.89333 103.747 7.49333 103.907 8.08 103.88C9.09333 103.88 10.0933 102.8 11.08 100.64ZM29.9697 89.28L30.2097 94.16C30.2097 94.8 29.8764 95.3733 29.2097 95.88C28.543 96.3867 27.6364 96.64 26.4897 96.64C25.823 96.64 25.3564 96.2933 25.0897 95.6C24.8497 94.9067 24.7297 93.8933 24.7297 92.56C24.7297 89.76 24.863 87.5733 25.1297 86C25.423 84.4 25.983 82.7867 26.8097 81.16C25.583 79.9867 24.9697 78.9733 24.9697 78.12C24.9697 76.3333 25.9297 75.44 27.8497 75.44C28.8364 75.44 29.703 75.96 30.4497 77C30.983 77.72 31.3697 78.56 31.6097 79.52C31.983 79.6533 32.4497 79.72 33.0097 79.72C33.783 79.72 34.6764 79.4667 35.6897 78.96L36.7297 78.44C37.0497 78.28 37.3297 78.2 37.5697 78.2C38.343 78.2 39.1164 79.3333 39.8897 81.6C39.6497 82.64 39.383 83.64 39.0897 84.6C38.823 85.56 38.503 86.72 38.1297 88.08C37.7564 89.44 37.5564 90.36 37.5297 90.84C37.5297 91.2933 37.6764 91.52 37.9697 91.52C38.3697 91.52 38.863 91.2667 39.4497 90.76C40.0364 90.2533 40.623 89.7067 41.2097 89.12C41.7964 88.5067 42.3297 87.9467 42.8097 87.44C43.3164 86.9333 43.663 86.68 43.8497 86.68C44.223 86.68 44.4097 87.1333 44.4097 88.04C44.4097 89.88 43.5964 91.6933 41.9697 93.48C40.3697 95.2667 38.5297 96.1467 36.4497 96.12C35.223 96.12 34.303 95.6267 33.6897 94.64C33.0764 93.6533 32.7564 92.4533 32.7297 91.04C32.7297 88.24 33.3564 85.5867 34.6097 83.08C34.023 83.32 33.3564 83.44 32.6097 83.44C31.8897 83.44 31.3697 83.4133 31.0497 83.36C30.8097 84.3733 30.5697 85.4 30.3297 86.44C30.0897 87.4533 29.9697 88.4 29.9697 89.28ZM66.9709 86.56C67.4509 86.56 67.6909 87.1733 67.6909 88.4C67.6909 89.0667 67.4109 89.88 66.8509 90.84C66.2909 91.7733 65.5576 92.64 64.6509 93.44C63.7709 94.2133 62.7843 94.8533 61.6909 95.36C60.5976 95.8667 59.5309 96.12 58.4909 96.12C57.0776 96.12 56.1309 94.88 55.6509 92.4C54.9576 93.5467 54.0509 94.4933 52.9309 95.24C51.8109 95.96 50.3043 96.32 48.4109 96.32C46.5443 96.32 45.0376 95.7333 43.8909 94.56C42.7443 93.3867 42.1843 91.96 42.2109 90.28C42.2109 85.7467 43.7176 82.1733 46.7309 79.56C48.0109 78.4667 49.1976 77.7467 50.2909 77.4C51.4109 77.0533 52.5843 76.88 53.8109 76.88C55.0376 76.88 56.0376 77.0933 56.8109 77.52C57.1843 76.7467 57.6109 76.36 58.0909 76.36C59.0243 76.36 59.9043 76.7733 60.7309 77.6C61.5843 78.4 62.0109 79.16 62.0109 79.88C61.6376 80.76 61.0909 81.8133 60.3709 83.04C60.1576 84.2667 60.0509 85.9867 60.0509 88.2C60.0509 90.4133 60.3309 91.52 60.8909 91.52C61.5843 91.52 63.2643 90.1333 65.9309 87.36C66.4109 86.8267 66.7576 86.56 66.9709 86.56ZM48.0909 88.96C48.0909 91.0133 48.8509 92.04 50.3709 92.04C51.9976 92.0133 53.3443 91.1467 54.4109 89.44C54.7843 88.8533 55.0909 88.1333 55.3309 87.28C55.3309 84.2933 55.5976 81.7333 56.1309 79.6C53.9709 80.0267 52.0909 81.0667 50.4909 82.72C48.8909 84.3733 48.0909 86.4533 48.0909 88.96ZM73.2522 79.24C74.6389 77.6667 76.4122 76.88 78.5722 76.88C81.6655 76.88 83.6255 78.1333 84.4522 80.64C84.6922 81.3867 84.8122 82.2133 84.8122 83.12C84.8122 85.1467 84.1455 87.1467 82.8122 89.12C81.5055 91.0933 79.9189 92.4267 78.0522 93.12H78.5322C80.4789 93.12 82.4522 92.4 84.4522 90.96C85.7322 90.0533 86.7322 89.12 87.4522 88.16C88.1989 87.1733 88.7589 86.68 89.1322 86.68C89.5055 86.68 89.6922 87.1067 89.6922 87.96C89.6922 89.4533 89.0522 90.96 87.7722 92.48C85.8522 94.6667 83.3989 95.9467 80.4122 96.32C78.2522 96.56 76.7189 96.6 75.8122 96.44C74.9055 96.28 74.2122 96.08 73.7322 95.84C72.6922 95.3067 72.1722 94.5067 72.1722 93.44C72.1722 92.8533 72.2922 92.32 72.5322 91.84C74.6389 91.84 76.2389 91.04 77.3322 89.44C78.4255 87.84 78.9722 85.84 78.9722 83.44C78.9722 82.8533 78.7589 82.3333 78.3322 81.88C77.9055 81.4 77.3322 81.16 76.6122 81.16C75.9189 81.16 75.1589 81.4667 74.3322 82.08C73.5055 82.6933 72.8389 83.4667 72.3322 84.4C71.8522 85.3067 71.4122 86.2133 71.0122 87.12C70.6122 88 70.2922 89.12 70.0522 90.48C69.6255 92.9333 69.1322 96.0267 68.5722 99.76C68.0389 103.52 67.7055 105.533 67.5722 105.8C67.4389 106.093 67.2389 106.36 66.9722 106.6C66.7055 106.84 66.4255 106.96 66.1322 106.96C65.5989 106.96 65.1589 106.8 64.8122 106.48C63.8522 105.653 63.2922 105.013 63.1322 104.56C62.9722 104.133 62.8922 103.573 62.8922 102.88C62.8922 100.267 63.3322 96.6 64.2122 91.88C65.0922 87.16 66.6122 82.2533 68.7722 77.16C69.0922 76.4133 69.6522 76.04 70.4522 76.04C71.2789 76.04 72.0655 76.76 72.8122 78.2C73.0255 78.5733 73.1722 78.92 73.2522 79.24ZM101.004 82.56C101.004 81.6 100.431 81.12 99.2844 81.12C98.1644 81.12 97.0577 82 95.9644 83.76C94.871 85.4933 94.191 87.2667 93.9244 89.08C93.9777 89.6933 94.031 90.3067 94.0844 90.92C94.1377 91.5333 94.1644 92.1333 94.1644 92.72C94.1644 94.1333 93.6977 95.0933 92.7644 95.6C92.3377 95.84 91.9244 96.0667 91.5244 96.28C91.151 96.4933 90.711 96.6 90.2044 96.6C89.6977 96.6 89.2444 96.2667 88.8444 95.6C88.471 94.9067 88.2844 93.84 88.2844 92.4C88.2844 88.3733 88.5777 84.88 89.1644 81.92C90.071 77.3333 91.871 72.4267 94.5644 67.2C94.9377 66.48 95.4844 66.1333 96.2044 66.16C96.9244 66.16 97.511 66.6533 97.9644 67.64C98.4177 68.6267 98.631 69.4533 98.6044 70.12C98.6044 70.7867 98.4977 71.44 98.2844 72.08C98.0977 72.6933 97.8444 73.3067 97.5244 73.92C97.231 74.5067 96.8844 75.12 96.4844 75.76C96.111 76.3733 95.7377 77.04 95.3644 77.76L94.7644 80.64C95.8044 78.9067 97.2044 77.7467 98.9644 77.16C99.6044 76.9467 100.311 76.84 101.084 76.84C102.898 76.84 104.271 77.2533 105.204 78.08C106.138 78.88 106.604 80.0267 106.604 81.52C106.604 82.9867 106.404 84.48 106.004 86C105.631 87.52 105.351 88.6133 105.164 89.28C105.004 89.92 104.924 90.4533 104.924 90.88C104.924 91.3067 105.071 91.52 105.364 91.52C105.764 91.52 106.258 91.2667 106.844 90.76C107.431 90.2533 108.018 89.7067 108.604 89.12C109.191 88.5067 109.724 87.9467 110.204 87.44C110.711 86.9333 111.058 86.68 111.244 86.68C111.618 86.68 111.804 87.1333 111.804 88.04C111.804 89.9067 110.884 91.7067 109.044 93.44C105.951 95.2533 103.978 96.16 103.124 96.16C103.044 96.16 102.991 96.1467 102.964 96.12C100.831 96.12 99.7644 94.4133 99.7644 91C99.7644 89.5333 99.8977 88.1867 100.164 86.96C100.458 85.7333 100.671 84.84 100.804 84.28C100.938 83.72 101.004 83.1467 101.004 82.56ZM114.594 96.12C111.927 96.12 110.594 93.6267 110.594 88.64C110.594 85.92 110.927 83.4533 111.594 81.24C112.634 77.8267 113.807 76.12 115.114 76.12C115.887 76.12 116.5 76.64 116.954 77.68C117.327 78.48 117.5 79.2667 117.474 80.04C117.474 81.1067 117.154 82.9867 116.514 85.68C115.9 88.0267 115.594 89.48 115.594 90.04C115.594 90.6 115.727 90.9867 115.994 91.2C116.287 91.4133 116.62 91.52 116.994 91.52C117.394 91.52 117.887 91.2667 118.474 90.76C119.06 90.2533 119.647 89.7067 120.234 89.12C120.82 88.5067 121.354 87.9467 121.834 87.44C122.34 86.9333 122.687 86.68 122.874 86.68C123.247 86.68 123.434 87.1333 123.434 88.04C123.434 89.9067 122.487 91.7333 120.594 93.52C118.727 95.28 116.727 96.1467 114.594 96.12ZM116.234 72.88C115.514 71.8133 115.154 70.6667 115.154 69.44C115.154 68.2133 115.34 67.2 115.714 66.4C116.114 65.5733 116.487 64.9733 116.834 64.6C117.18 64.2 117.58 64 118.034 64C118.78 64 119.46 64.56 120.074 65.68C120.687 66.7733 120.994 67.6933 120.994 68.44C120.994 69.8267 120.5 70.92 119.514 71.72C118.554 72.4933 117.46 72.88 116.234 72.88ZM137.314 86.56C137.794 86.56 138.034 86.9733 138.034 87.8C138.034 88.6 137.821 89.4667 137.394 90.4C136.994 91.3333 136.368 92.24 135.514 93.12C134.688 93.9733 133.621 94.7067 132.314 95.32C131.008 95.9333 129.461 96.24 127.674 96.24C125.914 96.24 124.368 95.72 123.034 94.68C121.701 93.6133 121.034 92.0933 121.034 90.12C121.034 88.12 121.341 86.32 121.954 84.72C122.594 83.0933 123.421 81.6933 124.434 80.52C125.474 79.3467 126.648 78.44 127.954 77.8C129.261 77.1333 130.501 76.8 131.674 76.8C133.728 76.8 134.754 77.6133 134.754 79.24C134.754 80.1733 134.554 80.92 134.154 81.48C133.781 82.04 133.394 82.32 132.994 82.32C132.461 82.32 131.994 82.1333 131.594 81.76C131.194 81.3867 130.754 81.2 130.274 81.2C129.794 81.1733 129.328 81.4 128.874 81.88C128.448 82.36 128.088 82.9733 127.794 83.72C127.208 85.2133 126.914 86.96 126.914 88.96C126.941 89.92 127.381 90.64 128.234 91.12C128.821 91.44 129.514 91.6133 130.314 91.64C131.114 91.64 131.874 91.3733 132.594 90.84C133.341 90.3067 134.021 89.7333 134.634 89.12C135.248 88.48 135.781 87.8933 136.234 87.36C136.714 86.8267 137.074 86.56 137.314 86.56ZM167.379 77.8C167.753 76.6267 168.353 76.04 169.179 76.04C169.926 76.0667 170.633 76.6 171.299 77.64C171.966 78.6533 172.299 79.44 172.299 80C172.246 81.0933 171.913 82.84 171.299 85.24C170.686 87.6133 169.819 90.7067 168.699 94.52C170.459 93.16 172.193 91.3867 173.899 89.2C174.486 88.4533 174.979 87.8533 175.379 87.4C175.806 86.92 176.153 86.68 176.419 86.68C176.793 86.68 176.979 87.1067 176.979 87.96C176.979 89.64 176.033 91.6 174.139 93.84C172.273 96.08 169.979 97.8267 167.259 99.08C166.939 100.147 166.593 101.16 166.219 102.12C165.846 103.08 165.366 103.92 164.779 104.64C163.499 106.187 161.553 106.96 158.939 106.96C157.179 106.96 155.673 106.453 154.419 105.44C153.193 104.427 152.579 103.16 152.579 101.64C152.579 100.813 152.846 100.16 153.379 99.68C153.939 99.2 154.699 98.8133 155.659 98.52C156.619 98.2267 157.739 97.9733 159.019 97.76C160.326 97.5467 161.713 97.28 163.179 96.96C163.313 96.5067 163.419 96.0667 163.499 95.64C163.606 95.1867 163.713 94.7333 163.819 94.28C162.353 95.64 160.553 96.32 158.419 96.32C156.313 96.32 154.686 95.7333 153.539 94.56C152.393 93.3867 151.833 91.96 151.859 90.28C151.859 85.7467 153.366 82.1733 156.379 79.56C158.459 77.7733 160.619 76.88 162.859 76.88C163.633 76.88 164.459 76.9733 165.339 77.16C166.246 77.3467 166.926 77.56 167.379 77.8ZM157.739 88.96C157.739 91.0133 158.499 92.04 160.019 92.04C160.873 92.04 161.739 91.72 162.619 91.08C163.499 90.44 164.206 89.4 164.739 87.96C165.139 86.0933 165.553 84.3733 165.979 82.8C166.433 81.2267 166.739 80.1333 166.899 79.52C164.659 79.8133 162.566 80.8133 160.619 82.52C158.699 84.2267 157.739 86.3733 157.739 88.96ZM161.939 100.64C160.979 100.827 160.139 100.973 159.419 101.08C158.699 101.187 158.099 101.28 157.619 101.36C157.166 101.44 156.819 101.533 156.579 101.64C156.366 101.747 156.259 101.92 156.259 102.16C156.259 102.64 156.553 103.053 157.139 103.4C157.753 103.747 158.353 103.907 158.939 103.88C159.953 103.88 160.953 102.8 161.939 100.64ZM179.789 96.12C177.122 96.12 175.789 93.6267 175.789 88.64C175.789 85.92 176.122 83.4533 176.789 81.24C177.829 77.8267 179.002 76.12 180.309 76.12C181.082 76.12 181.696 76.64 182.149 77.68C182.522 78.48 182.696 79.2667 182.669 80.04C182.669 81.1067 182.349 82.9867 181.709 85.68C181.096 88.0267 180.789 89.48 180.789 90.04C180.789 90.6 180.922 90.9867 181.189 91.2C181.482 91.4133 181.816 91.52 182.189 91.52C182.589 91.52 183.082 91.2667 183.669 90.76C184.256 90.2533 184.842 89.7067 185.429 89.12C186.016 88.5067 186.549 87.9467 187.029 87.44C187.536 86.9333 187.882 86.68 188.069 86.68C188.442 86.68 188.629 87.1333 188.629 88.04C188.629 89.9067 187.682 91.7333 185.789 93.52C183.922 95.28 181.922 96.1467 179.789 96.12ZM181.429 72.88C180.709 71.8133 180.349 70.6667 180.349 69.44C180.349 68.2133 180.536 67.2 180.909 66.4C181.309 65.5733 181.682 64.9733 182.029 64.6C182.376 64.2 182.776 64 183.229 64C183.976 64 184.656 64.56 185.269 65.68C185.882 66.7733 186.189 67.6933 186.189 68.44C186.189 69.8267 185.696 70.92 184.709 71.72C183.749 72.4933 182.656 72.88 181.429 72.88ZM192.47 89.28L192.71 94.16C192.71 94.8 192.376 95.3733 191.71 95.88C191.043 96.3867 190.136 96.64 188.99 96.64C188.323 96.64 187.856 96.2933 187.59 95.6C187.35 94.9067 187.23 93.8933 187.23 92.56C187.23 89.76 187.363 87.5733 187.63 86C187.923 84.4 188.483 82.7867 189.31 81.16C188.083 79.9867 187.47 78.9733 187.47 78.12C187.47 76.3333 188.43 75.44 190.35 75.44C191.336 75.44 192.203 75.96 192.95 77C193.483 77.72 193.87 78.56 194.11 79.52C194.483 79.6533 194.95 79.72 195.51 79.72C196.283 79.72 197.176 79.4667 198.19 78.96L199.23 78.44C199.55 78.28 199.83 78.2 200.07 78.2C200.843 78.2 201.616 79.3333 202.39 81.6C202.15 82.64 201.883 83.64 201.59 84.6C201.323 85.56 201.003 86.72 200.63 88.08C200.256 89.44 200.056 90.36 200.03 90.84C200.03 91.2933 200.176 91.52 200.47 91.52C200.87 91.52 201.363 91.2667 201.95 90.76C202.536 90.2533 203.123 89.7067 203.71 89.12C204.296 88.5067 204.83 87.9467 205.31 87.44C205.816 86.9333 206.163 86.68 206.35 86.68C206.723 86.68 206.91 87.1333 206.91 88.04C206.91 89.88 206.096 91.6933 204.47 93.48C202.87 95.2667 201.03 96.1467 198.95 96.12C197.723 96.12 196.803 95.6267 196.19 94.64C195.576 93.6533 195.256 92.4533 195.23 91.04C195.23 88.24 195.856 85.5867 197.11 83.08C196.523 83.32 195.856 83.44 195.11 83.44C194.39 83.44 193.87 83.4133 193.55 83.36C193.31 84.3733 193.07 85.4 192.83 86.44C192.59 87.4533 192.47 88.4 192.47 89.28ZM213.831 96.12C210.018 96.1467 207.418 94.72 206.031 91.84C205.551 90.8267 205.311 89.56 205.311 88.04C205.311 86.4933 205.444 84.8533 205.711 83.12C206.244 79.6533 207.271 76.4533 208.791 73.52C209.564 72.0267 210.431 70.7467 211.391 69.68C213.498 67.3333 215.844 66.1733 218.431 66.2C219.578 66.2 220.471 66.52 221.111 67.16C221.778 67.7733 222.111 68.6667 222.111 69.84C222.111 71.0133 221.764 72.2 221.071 73.4C220.378 74.5733 219.484 75.8 218.391 77.08C217.324 78.3333 216.138 79.6533 214.831 81.04C213.524 82.4267 212.244 83.9333 210.991 85.56V87.16C210.991 88.6533 211.311 89.7467 211.951 90.44C212.591 91.1333 213.338 91.48 214.191 91.48C216.484 91.48 218.511 90.3467 220.271 88.08C220.991 87.1467 221.538 86.68 221.911 86.68C222.284 86.68 222.471 87.1333 222.471 88.04C222.471 88.9467 222.218 89.88 221.711 90.84C221.231 91.7733 220.591 92.64 219.791 93.44C218.991 94.2133 218.071 94.8533 217.031 95.36C215.991 95.8667 214.924 96.12 213.831 96.12ZM215.991 74.64C216.551 73.9467 216.991 73.32 217.311 72.76C217.631 72.2 217.791 71.6267 217.791 71.04C217.791 70.4267 217.578 70.12 217.151 70.12C216.218 70.12 215.178 71.08 214.031 73C212.911 74.92 212.071 77.44 211.511 80.56C212.418 79.1733 213.244 78.0133 213.991 77.08C214.764 76.1467 215.431 75.3333 215.991 74.64ZM224.906 96.12C222.24 96.12 220.906 93.6267 220.906 88.64C220.906 85.92 221.24 83.4533 221.906 81.24C222.946 77.8267 224.12 76.12 225.426 76.12C226.2 76.12 226.813 76.64 227.266 77.68C227.64 78.48 227.813 79.2667 227.786 80.04C227.786 81.1067 227.466 82.9867 226.826 85.68C226.213 88.0267 225.906 89.48 225.906 90.04C225.906 90.6 226.04 90.9867 226.306 91.2C226.6 91.4133 226.933 91.52 227.306 91.52C227.706 91.52 228.2 91.2667 228.786 90.76C229.373 90.2533 229.96 89.7067 230.546 89.12C231.133 88.5067 231.666 87.9467 232.146 87.44C232.653 86.9333 233 86.68 233.186 86.68C233.56 86.68 233.746 87.1333 233.746 88.04C233.746 89.9067 232.8 91.7333 230.906 93.52C229.04 95.28 227.04 96.1467 224.906 96.12ZM226.546 72.88C225.826 71.8133 225.466 70.6667 225.466 69.44C225.466 68.2133 225.653 67.2 226.026 66.4C226.426 65.5733 226.8 64.9733 227.146 64.6C227.493 64.2 227.893 64 228.346 64C229.093 64 229.773 64.56 230.386 65.68C231 66.7733 231.306 67.6933 231.306 68.44C231.306 69.8267 230.813 70.92 229.826 71.72C228.866 72.4933 227.773 72.88 226.546 72.88ZM241.067 91.64C243.147 91.64 245.16 90.8133 247.107 89.16C247.827 88.5467 248.414 87.9867 248.867 87.48C249.32 86.9467 249.667 86.68 249.907 86.68C250.28 86.68 250.467 87.0533 250.467 87.8C250.467 88.5467 250.267 89.3867 249.867 90.32C249.467 91.2267 248.8 92.12 247.867 93C245.574 95.16 242.427 96.24 238.427 96.24C235.254 96.24 233.094 95.0933 231.947 92.8C231.547 92 231.347 90.8533 231.347 89.36C231.347 87.8667 231.64 86.32 232.227 84.72C232.814 83.0933 233.587 81.6933 234.547 80.52C235.534 79.3467 236.667 78.44 237.947 77.8C239.227 77.1333 240.587 76.8 242.027 76.8C243.494 76.8 244.614 77.16 245.387 77.88C246.187 78.6 246.587 79.5333 246.587 80.68C246.587 81.8267 246.294 82.7733 245.707 83.52C245.147 84.24 244.414 84.8533 243.507 85.36C242.6 85.84 241.587 86.28 240.467 86.68C239.374 87.0533 238.294 87.48 237.227 87.96V88.96C237.254 89.92 237.654 90.6 238.427 91C239.2 91.4 240.08 91.6133 241.067 91.64ZM240.387 80.36C239 80.36 238.04 81.9733 237.507 85.2C238.067 84.8267 238.587 84.4933 239.067 84.2C239.574 83.9067 240.014 83.6267 240.387 83.36C241.187 82.7733 241.6 82.1067 241.627 81.36C241.627 80.6933 241.214 80.36 240.387 80.36ZM257.586 76.64C259.372 76.6133 260.706 76.9467 261.586 77.64C262.466 78.3067 262.906 79.28 262.906 80.56C262.906 81.8133 262.519 82.8933 261.746 83.8C260.999 84.68 260.079 85.3067 258.986 85.68C259.759 86.48 260.452 87.2933 261.066 88.12C261.706 88.9467 262.026 89.8133 262.026 90.72C262.026 92.5067 261.319 93.8933 259.906 94.88C258.492 95.84 256.519 96.32 253.986 96.32C251.479 96.32 249.599 95.8267 248.346 94.84C247.092 93.8267 246.466 92.6933 246.466 91.44C246.466 90.16 246.772 89 247.386 87.96C248.026 86.92 248.706 86.4 249.426 86.4C249.852 86.4 250.159 86.56 250.346 86.88C250.532 87.1733 250.879 88.0533 251.386 89.52C251.572 90.0533 251.879 90.56 252.306 91.04C253.292 92.1333 254.852 92.68 256.986 92.68C256.666 91.6667 256.146 90.8 255.426 90.08C254.732 89.3333 254.039 88.6133 253.346 87.92C252.652 87.2267 252.039 86.4933 251.506 85.72C250.972 84.92 250.706 83.9867 250.706 82.92C250.706 81 251.426 79.44 252.866 78.24C254.226 77.1733 255.799 76.64 257.586 76.64ZM257.426 84.04C258.492 82.8933 259.026 81.9733 259.026 81.28C259.026 80.96 258.906 80.68 258.666 80.44C258.452 80.1733 258.132 80.04 257.706 80.04C257.279 80.04 256.866 80.0933 256.466 80.2C256.092 80.3067 255.786 80.3867 255.546 80.44C255.546 81.4533 256.172 82.6533 257.426 84.04Z" fill="black"/>
<defs>
<filter id="filter0_d_42_2" x="33.5518" y="0" width="184.896" height="164.48" filterUnits="userSpaceOnUse" color-interpolation-filters="sRGB">
<feFlood flood-opacity="0" result="BackgroundImageFix"/>
<feColorMatrix in="SourceAlpha" type="matrix" values="0 0 0 0 0 0 0 0 0 0 0 0 0 0 0 0 0 0 127 0" result="hardAlpha"/>
<feOffset dy="4"/>
<feGaussianBlur stdDeviation="2"/>
<feComposite in2="hardAlpha" operator="out"/>
<feColorMatrix type="matrix" values="0 0 0 0 0 0 0 0 0 0 0 0 0 0 0 0 0 0 0.25 0"/>
<feBlend mode="normal" in2="BackgroundImageFix" result="effect1_dropShadow_42_2"/>
<feBlend mode="normal" in="SourceGraphic" in2="effect1_dropShadow_42_2" result="shape"/>
</filter>
</defs>
</svg>
